{"title":"American Mary 2012 BRRip XViD juggs","uid":8199334,"size":745855301,"categoryP":"video","categoryS":"movies","magnet":"?xt=urn:btih:1b8588f6bbd68778b171cc664e06a67c61be10b2&amp;dn=American+Mary+2012+BRRip+XViD+juggs&amp;tr=udp%3A%2F%2Ftracker.openbittorrent.com%3A80&amp;tr=udp%3A%2F%2Fopen.demonii.com%3A1337&amp;tr=udp%3A%2F%2Ftracker.coppersurfer.tk%3A6969&amp;tr=udp%3A%2F%2Fexodus.desync.com%3A6969","seeders":0,"leechers":2,"uploader":"juggs99","files":3,"time":1361983417,"description":" &lt;a href=&quot;http://www.imdb.com/title/tt1959332/&quot; rel=&quot;nofollow&quot; target=&quot;_NEW&quot;&gt;http://www.imdb.com/title/tt1959332/&lt;/a&gt;\n\nSource : GECKOS\n\n\nFormat                                   : AVI\nFormat/Info                              : Audio Video Interleave\nFile size                                : 702 MiB\nDuration                                 : 1h 42mn\nOverall bit rate                         : 959 Kbps\nWriting library                          : VirtualDub build 32842/release\n\nVideo\nID                                       : 0\nFormat                                   : MPEG-4 Visual\nFormat profile                           : Advanced Simple@L5\nFormat settings, BVOP                    : 4\nFormat settings, QPel                    : No\nFormat settings, GMC                     : No warppoints\nFormat settings, Matrix                  : Default (H.263)\nMuxing mode                              : Packed bitstream\nCodec ID                                 : XVID\nCodec ID/Hint                            : XviD\nDuration                                 : 1h 42mn\nBit rate                                 : 822 Kbps\nWidth                                    : 640 pixels\nHeight                                   : 272 pixels\nDisplay aspect ratio                     : 2.35:1\nFrame rate                               : 23.976 fps\nColor space                              : YUV\nChroma subsampling                       : 4:2:0\nBit depth                                : 8 bits\nScan type                                : Progressive\nCompression mode                         : Lossy\nBits/(Pixel*Frame)                       : 0.197\nStream size                              : 602 MiB (86%)\nWriting library                          : XviD 64\n\nAudio\nID                                       : 1\nFormat                                   : MPEG Audio\nFormat version                           : Version 1\nFormat profile                           : Layer 3\nCodec ID                                 : 55\nCodec ID/Hint                            : MP3\nDuration                                 : 1h 42mn\nBit rate mode                            : Constant\nBit rate                                 : 128 Kbps\nChannel(s)                               : 2 channels\nSampling rate                            : 44.1 KHz\nCompression mode                         : Lossy\nStream size                              : 93.8 MiB (13%)\nAlignment                                : Split accross interleaves\nInterleave, duration                     : 42 ms (1.00 video frame)\nInterleave, preload duration             : 500 ms\nWriting library                          : LAME3.99r\nEncoding settings                        : -m s -V 4 -q 3 -lowpass 17 -b 128\n\n\nPlot\nThe story follows medical student, Mary Mason, as she becomes increasingly broke and disenchanted with the surgical world she once admired.\n\n &lt;a href=&quot;\nhttp://www.shotpix.com/images/59567245816046786501.png&quot; rel=&quot;nofollow&quot; target=&quot;_NEW&quot;&gt;\nhttp://www.shotpix.com/images/59567245816046786501.png&lt;/a&gt; &lt;a href=&quot;\nhttp://www.shotpix.com/images/60784905771687683750.png&quot; rel=&quot;nofollow&quot; target=&quot;_NEW&quot;&gt;\nhttp://www.shotpix.com/images/60784905771687683750.png&lt;/a&gt; &lt;a href=&quot;\nhttp://www.shotpix.com/images/61179376263053996930.png&quot; rel=&quot;nofollow&quot; target=&quot;_NEW&quot;&gt;\nhttp://www.shotpix.com/images/61179376263053996930.png&lt;/a&gt; &lt;a href=&quot;\nhttp://www.shotpix.com/images/74913829188888222296.png&quot; rel=&quot;nofollow&quot; target=&quot;_NEW&quot;&gt;\nhttp://www.shotpix.com/images/74913829188888222296.png&lt;/a&gt;","torrent":{"xt":"urn:btih:1b8588f6bbd68778b171cc664e06a67c61be10b2","amp;dn":"American+Mary+2012+BRRip+XViD+juggs","amp;tr":["udp%3A%2F%2Ftracker.openbittorrent.com%3A80","udp%3A%2F%2Fopen.demonii.com%3A1337","udp%3A%2F%2Ftracker.coppersurfer.tk%3A6969","udp%3A%2F%2Fexodus.desync.com%3A6969"],"infoHash":"1b8588f6bbd68778b171cc664e06a67c61be10b2","infoHashBuffer":{"type":"Buffer","data":[27,133,136,246,187,214,135,120,177,113,204,102,78,6,166,124,97,190,16,178]},"announce":[],"urlList":[]}}